<?xml version="1.0" encoding="UTF-8" standalone="no"?>
<svg id="svg2" xmlns:rdf="http://www.w3.org/1999/02/22-rdf-syntax-ns#" xmlns="http://www.w3.org/2000/svg" height="2265pt" width="1200pt" version="1.1" xmlns:cc="http://creativecommons.org/ns#" xmlns:dc="http://purl.org/dc/elements/1.1/" viewBox="0 0 1200 2265">
<path id="path4" fill="#26231f" d="m381.6 11.109c-2.7018-0.04808-5.3763 0.08906-7.9375 0.37031-18.55 2.831-40.79 10.901-46.46 30.671-36.06 31.46-73.71 61.35-110.18 92.42 8.71 61.93 19.51 123.64 28.92 185.48 2.75 4.08-0.8409 4.96-3.1609 5.8-18.43 4.13-37.259 7.7003-54.709 15.17-12.3 4.2-13.561 19.259-17.211 29.839-11.31 45.44-15.5 93.19-8.35 139.62 4.06 24.34 12.54 50.74 34.2 65.07 1.79 7.04-10.59 1.3006-11.88 7.5406-1.53 5.6-4.0994 14.009 1.0906 18.489 6.51 1.19 13.26-0.25907 19.85-0.53907 2.92 14.46 0.39 29.91-2.45 44.23-14.56 1.33-16.071 17.26-10.511 27.57-21.53 5.19-44.08 8.3397-63.75 19.08-5.7 2.79-6.0388 9.7894-6.9688 15.259-1.33 35.97 4.3691 72.511 17.739 105.99 2.77 6.04 5.3297 13.689 12.88 14.809 29.24-0.64 58.47-2.6597 87.72-2.9797 2.97 15.82 12.771 33.81 31.791 30.5 10.84 46.3 20.06 95.79 8.25 142.83-2.88 17.3-26.97 5.2706-35.3 17.941-10.8 15.52-6.4403 35.66-0.4203 51.5-55.6 9.58-111.44 19.48-165.28 36.68-12.96 5.18-29.07 8.6706-36.38 21.691-13.48 40.92-9.9312 84.879-8.4812 127.24 3.5 38.32 5.0503 79.301 24.32 113.59 4.43 11.14 20.65 5.6991 26.05 11.039-14.1 5.29-36.369-5.7597-49.839 6.2203-10.89 14.05-7.9906 33.751-3.0406 49.611 3.38 13.99 20.401 8.7991 30.341 12.739 13.47 60.69 24.429 122.68 22.309 185.1-1.52 19.61-2.78 40.16-11.15 58.27-12.74-0.94-29.519-4.93-36.659 9.15-13.25 23.45-16.141 52.36-11.941 78.62 2.42 14.88 27.041 9.7703 29.491 20.72-21.95 54.19-40.95 110.37-47.25 168.81-2.62 30.63-2.0103 63.689 13.13 91.359 11.51 21.1 34.079 32.041 54.689 42.341 68.4 31.69 140.24 55.1 211.91 78.1 102.38 30.41 206.73 62.91 312.3 74.05 124.79-48.27 249.06-98.05 371.31-152.52 57.32-25.91 114.67-52.15 169-84 18.85-12.16 40.641-22.87 52.491-42.68 4.24-20.87 4.3094-49.441-15.591-62.541-12.72 1.32-24.659 10.321-37.709 10.261-21.59-34.14-40.951-70.171-53.811-108.59-6.04-18.79-10.019-39.19-4.6891-58.65 17.65-10.36 40.739-12.87 54.609-28.65 5.9-28.31 9.0406-59.499-1.4594-87.039-4.18-10.4-15.3-5.3906-23.35-4.6906 33.38-74.64 32.43-160.96 19.3-240.39-7.39-27.8-12.98-60.269-37.12-78.909-25.4-8.84-52.831-1.1294-78.941-1.0094 5.77-26.11-31.669-21.901-35.139-43.861-8.68-39.67-6.5503-80.919-2.3703-121.04 2.59-16.11 3.6797-36.23 19.83-45.12 12.72-12.99 17.29-40 1.1-51.58-23.11-4.84-47.68-5.6809-70.5-10.061 10.57-14.78 15.1-34.6 18.97-52.82 7.98-42.56 14.36-86.1 11.35-129.48 0.08-13.33-15.62-16.97-23.27-23.77-4.24-36.68 9.4206-72.229 22.891-105.81 0.51-1.48 1.4197-4.1297-0.9203-4.3797-45.52-17.26-91.1-34.43-136.67-51.53 1.05-28.25 16.971-61.061 0.9406-87.791-19.95-10.91-43.251-16.8-63.411-26.42 8.86-10.18 9.4506-30.159-5.9094-35.309-14.23-26.56-1.8594-58.531 7.8906-84.561 10.23-3.05 15.509-21.539 5.1688-27.519-52.91-39.77-111.84-70.741-168-105.44-3.81-74.44-5.57-149.03-9.75-223.41-57.17-21.579-114.65-43.881-174.01-58.191-5.9556-10.644-18.196-14.342-29.903-14.55zm5.4453 29.636c3.4943 0.000527 6.9781 0.17812 10.428 0.68437 19.43 83.89 35.729 168.58 51.589 253.19-18.76 5.9-38.03 11.169-57.63 12.959-8.09-15.17-10.01-32.62-13.87-49.15-12.04-69.34-22.52-139.01-30.7-208.91 6.03-6.02 14.751-6.9609 22.731-8.0109 5.775-0.275 11.628-0.76494 17.452-0.76406zm40.77 13.675c0.2335-0.0091 0.4813-0.0022 0.7469 0.02031 51.11 5.96 98.861 29.12 146.58 47.75 4.24 65.06 5.9188 131.9 9.9688 197.58-14.98-3.39-28.699-13.581-44.589-11.411-23.38 3.13-46.79 6.2103-70.25 8.5703-14.97-78.48-29.69-157.06-44.8-235.52-1.125-3.2906-1.1597-6.8532 2.3422-6.9891zm-101.86 13.583c1.43-0.063 2.52 0.727 2.34 2.647 10.66 76.32 21.67 152.63 31.5 229.06-31.87 5.49-63.531 12.69-95.491 17.27-12.08-52.55-22.3-105.58-34.18-158.21-1.09-5.99-4.5697-13.631 2.1203-17.591 29.94-25.14 58.01-53.549 92.2-72.839 0.5175-0.2 1.0327-0.31656 1.5094-0.3375zm221.09 232.1c6.4156-0.0119 0.6488 14.132-5.5047 14.059-85.05 7.9-170.15 18.03-254.08 34.3-22.66 5.77-47.619 8.17-67.259 21.75-36.36 46.56-40.45 122.13 3.1203 165.5 117.91-16.31 235.72-33.72 353.69-49.58 1.96 4.56-0.5091 12.66-1.2891 18.55-99.99 16.74-200.11 33.071-300.63 46.411-22.71 2.63-45.44 6.3688-68.35 5.9188-21.68-12.73-29.941-39.119-32.991-62.739-5.59-47.42 3.75-95.26 17-140.68 117.96-17.66 235.93-35.33 353.9-53 0.9375-0.33562 1.7316-0.48939 2.3953-0.49062zm20.234 4.15c14.3 2.63 26.701 12.34 39.591 18.87 46.92 27.89 93.799 56.359 136.69 90.239 3.85 2.56 14.121 12.431 2.3312 8.9609-63.75-28.24-123.47-64.9-183.78-99.72 1.97-5.73 1.4903-13.67 5.1703-18.35zm-22.497 33.828c3.6778-0.24803-0.065 7.5859 1.2766 9.8516 1.66 38.17 2.9 79.111 21.6 113.24-84.82 15.49-172.27 30.229-258.68 41.809-24.79 2.93-49.629 6.84-74.659 6-7.43-0.35-9.0209-9.0991-11.661-14.639-8.23-29.38-13.319-62.211-1.7391-91.381 7.36-19.25 31.04-19.319 47.87-24.159 90.81-17.86 182.83-28.73 274.6-40.37 0.5532-0.21375 1.0118-0.32591 1.3922-0.35156zm19.167 13.102c52.89 18.93 105.31 39.63 156.06 63.8 8.63 5.31 20.97 9.2303 24.92 18.72-7.15 5.25-13.7 11.7-13.78 21.45-3.15 24.3-0.3603 49.02 4.8297 72.85-40.94-12.23-81.629-25.99-120.01-44.97-16.83-8.76-34.33-19.849-41.9-38.109-13.02-29.32-11.25-62.491-10.12-93.741zm-62.169 7.7828c-4.1441-0.068-9.0053 0.80906-12.161 0.56719-34.89 3.54-67.3 17.991-101.25 25.761-2.68-0.26-3.3397 3.3994-0.2797 2.8094 41.87 0.31 80.049-20.011 120.92-26.291-1.2163-2.17-4.0049-2.794-7.2282-2.8469zm3.3407 39.942c-5.9938 0.055-12.177 0.91593-17.522 0.63593-21.11 1.9-42.641 3.9891-62.541 11.689-0.34 5.7 8.1606 1.0906 11.341 2.2406 28.43-2.73 56.989-5.2803 85.109-10.37-4.59-3.5-10.394-4.2503-16.388-4.1953zm90.338 92.236c50.3 13.03 97.39 37.529 144.42 59.009-47.81-11.33-96.13-21.52-142.8-37-10.51-2.92-9.9803-17.109-1.6203-22.009zm-26.205 37.195c9.114 0.24929 26.474 15.426 6.6047 14.534-118.11 18.63-237.51 27.499-356.4 39.659-2.1 1.16-15.24 0.24031-3.75-0.87969 117.61-17.37 235.18-35.231 352.69-53.291 0.2753-0.0241 0.5607-0.0315 0.8547-0.0234zm48.005 27.844c36.95 1.65 72.281 15.59 107.96 24.6 27.3 7.8 54.779 15.361 81.609 24.561 3.49 13.37 5.5697 27.31 4.8797 41.13-0.45 6.79-4.1788 16.36-12.869 14.48-23.94-2.08-47.171-9.1306-70.861-12.941 71.3 25.25 142.06 52.37 211.91 81.3-1.07 10.67-13.971 14.72-22.691 9.65-72.04-24.02-141.8-54.26-211.98-83.11-7.37-1.23-8.4397-8.6897-9.0297-14.93-30.66-7.11-61.941-12.75-92.211-20.78 12.89-18.51 12.51-42.391 13.28-63.961zm-34.162 14.327c13.233-0.31626 14.544 21.198 4.6531 29.294-13.53 17.07-36.81 16.861-56.32 20.641-87.98 11.61-176.82 14.829-265.42 17.619-15.78-1.12-32.79 2.1-47.95-1.95 4.42-10.05 2.3212-20.98 3.2312-31.55 45.2-9.23 91.63-11.56 137.53-15.75 72.23-6.04 144.53-11.119 216.82-16.239 2.8069-1.3753 5.2909-2.0123 7.4563-2.0641zm-100.48 68.123c7.2374 0.0226 14.444 0.41093 21.566 1.6109-96.33 9.62-193.21 17.749-289.8 25.739-3.72-3.42-5.73-9.9797-7.15-15.13 79.73-3.7 159.41-8.9203 239.2-11.37 11.975 0.0875 24.122-0.8877 36.184-0.85zm189.7 1.2125c2.0882 0.009 4.1766 0.0578 6.2641 0.15782 2.78 3.44 1.2197 10.71-3.6703 11.1-140.33 15.89-280.68 31.929-420.6 51.209-37.03 6.3-75.489 8.22-111.21 20.05 2.06 22.83 2.69 46.131 9.2 68.281 1.7 5.15 4.7294 12.39 11.759 10.05 171.4-7.22 342.58-19.221 513.85-28.361 1.53 7.66-2.1294 19.35-12.059 17.7-160.57 9.58-321.12 20.74-481.89 26.03-11.54-1.98-26.97 4.7206-35.83-5.3594-14.1-24.88-18.449-53.919-21.039-82.009-0.08-9.99-1.11-27.371 13.65-27.031 79.13-15.19 159.42-23.319 239.29-33.639 91.04-10.38 182.08-21.22 273.51-27.52 6.2475-0.36 12.511-0.68594 18.775-0.65782zm8.4547 25.878c-10.16 26.36-23.23 57.16-10.17 84.25-147.6 12.74-295.02 28.369-442.97 36.689-20.01 0.45-40.229 3.12-60.159 0.4-8.55-14.07-17.6-37.53-5.17-51.06 170.58-24.08 341.66-45.961 512.39-69.491 1.52-0.2 4.5597-0.58907 6.0797-0.78907zm12.48 24.57c80.24 22.92 160.01 47.91 240.33 70.7-14.84 14.36-19.08 37.56-15.35 57.85-77.57-21.52-155.09-43.351-232.06-66.911-15.04-17.39-15.57-49.859 7.0797-61.639zm-69.581 8.6734c-7.4028-0.0318-14.804 0.18312-22.169 0.56563-39.15 1.63-78.79 5.4006-116.22 17.641-1.79 1.11-5.8194 0.99969-5.1594 3.8797 58.27-9.23 117.15-13.081 175.97-16.841 0.93 2.17 9.2891-2.2794 4.4391-2.6594-12.181-1.7938-24.523-2.5329-36.861-2.5859zm73.28 67.84c69.36 11.96 136.39 35.04 204.1 54.1 6.8 0.4 10.38 6.6306 12.83 12.191-73.42-15.29-147.05-29.56-220.32-45.52-10-2.87-1.5494-16.88 3.3906-20.77zm-52.12 40.02c-2.34 8.45-5.6994 17.71-16.459 16.55-119.04 13.96-239.25 14.41-358.86 19.58-4.85-4.01-7.4197-11.75-9.6297-17.82 23.03-5.53 46.881-5.8803 70.391-7.8703 92.36-5.45 184.9-7.6197 277.35-9.6297 12.37-1.04 24.799-0.59936 37.209-0.80936zm42.45 17.959c82.39 19.34 165.64 34.791 248.55 51.741-5.61 42.1-13.57 84.59-27.37 124.9-3.7 16.32-23.32 13.6-35.98 15-69.23 2.04-138.42-3.8903-207.39-9.3203 17.22-10.36 27.88-29.04 31.45-48.57 8.59-44.5 1.4591-90.27-9.2609-133.75zm-47.245 20.712c7.278-0.2024 13.903 1.2797 16.086 9.5485 8.25 27.29 3.5503 56.77-3.1297 83.93-4.34 16.16-11.111 37.119-31.611 37.389-106.8 16.9-215.52 15.711-323.32 18.961 13.57-21.34 10.98-48.23 6.85-72.05 14.23 0.46 30.771-1.7603 42.361-10.27-13.84-5.2-30.93 0.22-42.55 8.95-3.45-20.43-9.9609-40.18-15.611-59.95 111.5-5.32 223.01-10.71 334.54-15.38 4.6681 0.2056 10.724-0.97072 16.384-1.1282zm-225.35 36.653c-3.3302-0.0183-6.8325 0.36032-9.125 0.39536-35.22 1.94-69.339 12.219-104.52 14.439 1.56 5.1 10.92 3.1603 15.4 4.6703 36.34-0.06 71.61-10.31 107.3-15.9-0.7762-2.9025-4.7746-3.5811-9.0562-3.6047zm212.15 108.19c12.412-0.74368 2.2469 23.403-7.9734 21.611-112 19.48-225.87 25.79-339.06 35.1-10.73 4.58-29.939-17.15-13.309-19.63 86.21-14.39 174.11-14.391 261.07-21.891 32.76-3.4 67.35-1.4691 98-15.039 0.4481-0.0775 0.873-0.1276 1.2734-0.1516zm-1.0687 40.483c1.5712-0.012 3.1431-0.01 4.7156 0.019 2.8 11.63 9.5197 30.689-3.3703 38.539-156.64 17.19-314.46 27.651-469.48 57.241-20.45 5.38-43.089 7.5591-60.289 20.739-12.13 20.63-14.181 45.211-17.561 68.431-3.5 37.73-6.3703 77.16 5.5797 113.75 4.91 15.44 23.921 10.849 36.081 13.019 177.47 5.92 355.25 4.8012 532.76 3.8312 4.18 10.01 12.07 24.359 2.7 33.359 4.58 1.68 12.831-2.6506 15.891 0.059-5.63 0.54-11.221 1.4212-16.861 1.8312-182.97-2.34-366.06-1.2212-548.8-11.731-12.69-2.04-30.059 0.6212-36.089-14.019-10.6-23.5-12.051-49.75-14.931-75.02-2.68-44.93-5.1-90.71 3.65-135.12 2.37-16.22 22.001-17.509 34.081-22.909 109.04-30.81 221.45-47.22 333.01-66 61.49-9.16 122.95-18.821 184.79-25.411 4.7025-0.3675 9.4097-0.5708 14.124-0.6079zm37.43 9.9064c1.0619 0.034 2.1474 0.2343 3.2468 0.6218 106.52 3.09 212.59 16.46 318.38 28.88 1.87 11.16 2.86 24.08-4.15 33.75-17.27 3.45-35.02 1.8997-52.45 0.7797-90.42-6.41-179.99-20.79-270.01-30.93-21.75 3.0281-10.945-33.618 4.9844-33.102zm-35.324 52.202c-4.1 26.47-7.0206 53.15-8.0906 79.93-59.12-2.58-116.4 14.89-175.04 18.82-4.82-0.05 2.1397 5.4503 4.0297 2.7703 57.51 4.91 113.57-12.76 170.42-18.3-0.97 25.34 0.3094 50.67 2.6094 75.9-25.06-1.48-49.741 4.9203-74.791 3.8203-4.55-4.98-6.7388 3.1491-3.1688 3.2891 25.63 9.43 53.209 2.82 79.109-1.9 3.87 21.82 9.9203 43.861 22.87 62.111-135.27 4.4-274.83 3.8-411.73 3.7-42.39-2.11-85.41-0.4903-127.22-8.8203-10.85-1.4-8.9591-15.299-10.989-23.059-3.92-37.76-6.1603-78.57 10.38-113.82 8.07-17.51 29.409-15.87 45.259-19.77 156.5-24.96 313.87-43.999 471.05-64.009 1.32-0.14 3.9606-0.4406 5.2906-0.5906zm89.169 27.45c68.984-0.1313 138.03 0.625 206.87 5.7 12.94 1.38 26.43 2.2906 38.45 7.5906 4.73 5.4-5.5394 9.81-6.3094 15.5-10.34 43.85 2.44 88.73 10.75 131.85-96.91 6.88-194.78 12.53-289.44 35.88-23.08-16.11-32.639-45.009-36.569-71.709-5.78-41.17-2.5809-83.28 5.7891-123.87 13.62-0.82 27.28 0.1894 40.9-0.8406 9.8512-0.045 19.705-0.081 29.559-0.1zm-139.19 90.552c-3.7954 0.043-7.5591 0.2837-11.202 0.6187-22.86 2.34-45.179 8.1897-67.959 10.98-2.49 1.11 0.8991 2.77 2.2391 2.7 34.75 4.89 68.92-11.009 103.62-4.5891 2.57 0.27 10.321 1.4791 5.8406-1.9109-9.4875-6.27-21.153-7.9269-32.539-7.7984zm400.2 93.494c7.9213 0.21 13.03 11.059 17.567 15.475-101.29 21.97-204.3 41.269-305.18 65.909-11.18-8.7-10.001-28.5-9.2609-40.5 97.23-20.44 196.77-28 295.25-40.78 0.5537-0.086 1.0953-0.1187 1.6234-0.1047zm96.094 45.139c6.2325-0.044 12.219 0.9712 17.044 5.3562 23.82 29.78 25.179 69.9 26.469 106.28-0.5 55.66-7.5294 111.57-22.009 165.32-26.07 19.49-58.12 29.27-87.63 42.5-112.51 45.62-226.6 87.369-341 127.91 36.37-42.45 50.31-98.91 54.37-153.57 5.85-77.78-5.4103-155.81-23.42-231.36 15.18 1.9 30.5 0.6703 45.6-1.4297 104.82-15.72 206.86-46.591 312.05-60.011 5.815 0.15 12.294-0.9516 18.527-0.9953zm-717.96 41.364c85.991 0.132 171.95 2.2374 257.36 12.531 16.9 3.56 35.559 4.6503 50.019 15.02 11.36 16.5 17.03 36.27 21.27 55.67 16.97 91.23 6.47 185.78-15.4 275.29-5.21 17.58-8.9203 36.909-20.72 51.339-22.33 4.84-45.799 1.1406-68.539 2.0906-172.17-8.83-344.43-20.39-515.69-40.2-17.81-9.61-7.2491-37.811-4.1391-53.641 139.22 25.03 279.57 49.08 421.37 50.78 42.44-2.53 91.131-0.05 126.53-27.58 33.36-33.26 39.36-83.209 39.58-128.01-1.52-52.2-11.09-104.28-28.5-153.51-4.18-16.84-26.601-13.899-39.911-17.109-175.6-14.99-352.14-5.3897-528.08-8.7797-15.82-1.04-14.28-20.65-6.65-29.82 52.26-1.74 104.52-2.7003 156.8-3.5203 51.502 0 103.11-0.6308 154.7-0.5515zm80.008 56.75c47.894 0.1149 95.74 1.5062 143.35 6.7812 26.37 1.24 28.75 34.441 32.68 54.331 6.46 57.47 3.7897 117.44-16.22 172.22-8.39 20.38-20.7 45.241-45.6 47.361-51.24 6.73-103.1 0.3094-154.26-4.4906-97.19-10.42-193.78-25.82-289.99-42.92 7.04-11.52 14.31-23.28 17.17-36.65 39.17 5.97 77.6 18.49 117.5 19.57 1.93-1.58 9.4 1.4 9.2-2.8-41.41-7.91-82.35-20.24-124.77-21.15 6.84-37.03 0.6303-74.979-11.98-110.11 69.15 16.92 140.96 4.11 211.08 12.05 5.1 3.6 7.4094-1.7197 2.8094-2.1797-70.47-18.42-144.37-2.5409-215.63-15.011-9.17-24.94-22.029-48.739-34.289-71.909 71.77-0.53 143.52-3.8009 215.31-4.2109 47.805 0.165 95.747-0.9963 143.64-0.8812zm-222.7 133.29c-7.3892 0.019-14.749 0.2638-21.981 0.5313-18.4 2.68-42.19-0.07-57.5 7.4203 47.83 4.73 96.32-1.01 144.17 3.55-20.085-9.57-42.521-11.557-64.689-11.502zm894.23 115.31c11.725 0.3796 23.37 19.945 10.152 25.72-20.72 10.79-43.08 17.931-64.98 25.891-124.82 42.35-251.55 78.999-378.85 113.12-9.13 0.26-21.93 8.7503-30.02 3.0203 13.39-14.01 33.64-20.83 51.68-28.33 134.84-51.32 272.58-94.54 409.68-139.23 0.775-0.155 1.5574-0.2159 2.339-0.1906zm-41.909 75.53c-13.97 61.24 26.221 116.67 59.831 163.01-171.76 59.77-343.02 121.26-514.8 180.85-12.18-67.51-0.88-144.35 37.2-203.77 138.55-47.07 277.51-93.04 416.25-139.62 0.38-0.12 1.1388-0.3503 1.5188-0.4703zm-951.38 22.6c170.58-0.32 340.49 19.751 510.12 35.791 4.4 10.9 8.6994 23.939 4.6094 35.609-4.73 10.07-17.07 6.59-25.73 5.8-152.43-16.62-305.01-34.599-458.35-39.439-11.88 0.9-24.15 0.14-35.6 3.95-21.42 18.05-29.01 46.92-32.83 73.53-4.17 33.86-4.9594 70.36 9.6906 101.95 15.73 13.02 35.569 19.32 54.269 26.8 139.28 49.84 283.09 85.66 426.02 123.25 0.11 16.64 1.6509 36.209-0.5891 51.259-118.37-33.79-235.98-70.879-353.15-108.79-44.59-15.9-90.221-29.54-133.06-49.92-14.13-5.3-15.42-22.5-18.32-34.9-7.96-57.3-8.67-115.6-1.12-172.9 3.33-15.81 5.4297-33.07 16.23-45.78 11.48-5.98 25.27-4.6209 37.72-6.3109zm25.083 64.594c12.784 0.084 25.567 1.3387 38.317 2.1563 147.29 12.75 294.13 30.111 441 46.841-4.11 12.9-8.1797 25.921-12.18 38.891-82-20.91-168.12-18.62-252.14-14.45-2.49 1.46-8.9088-1.34-9.7188 2.75 75.27 4.95 150.98 1.1697 226.04 9.9297 11.66 2.22 23.44 5.1391 35.4 3.1891-14.69 57.74-24.219 118.09-16.209 177.6-113.48-22.67-226.76-46.67-339.02-74.9-36.29-9.99-73.06-18.91-108.07-32.95-10.22-4.16-22.33-9.21-24.58-21.4-10.08-36.83-13.991-76.449-6.7906-114.14 2.55-8.43 5.1303-21.06 15.17-23.15 4.26-0.2925 8.5215-0.395 12.783-0.3672zm883.07 42.477c-108.22 53.62-228.7 72.54-341.94 112.13-4.37 1.1-16.891 7.7903-4.8406 4.3703 112.93-31.03 232.24-49.35 335.5-107.68 2.32-1.35 14.46-8.9503 11.28-8.8203zm145.84 39c18.13-0.11 11.439 31.17 1.4891 39.55-191.45 78.28-383.53 155.05-575.16 232.86-15.05 2.96 1.6997-17.71 5.3297-23.92 81.38-20.19 158.98-54.38 235.67-88.23 112.58-49.85 222.09-106.43 332.67-160.26zm-720.1 31.38c-1.16 3.49 4.7703 2.68 6.9703 4 42.56 9.33 84.919 25.81 129.09 23.62 7.13-0.7-3.92-4.5891-5.95-3.9891-43.5-6.93-85.699-23.701-130.11-23.631zm419.61 30.842c-2.6013 0-6.2432 0.5028-7.2782 0.7078-78.41 9.09-156.65 29.301-226.57 66.531-7.4 5.06 3.6306 1.8991 6.2406 0.4891 73.99-29.01 151.16-48.34 228.64-65.37 3.13-1.84 1.57-2.3541-1.0312-2.3578zm-428.76 15.478c-3.03 2.52 6.1894 4.2406 7.9594 5.7406 41.55 14.79 86.681 26.91 131.01 21.05-45.06-9.32-93-17.161-138.97-26.791z"/>
</svg>
